<svg height="300" viewBox="0 0 64 64" width="300" xmlns="http://www.w3.org/2000/svg" version="1.1" xmlns:xlink="http://www.w3.org/1999/xlink" xmlns:svgjs="http://svgjs.dev/svgjs"><g width="100%" height="100%" transform="matrix(1,0,0,1,0,0)"><g id="_22_payment_method" data-name="22 payment method"><path d="m61.7832 27.9424-12.98-21.3662a3.0047 3.0047 0 0 0 -4.1221-1.0049l-38.4584 23.3642a3.0254 3.0254 0 0 0 -1.0059 4.1221l12.98 21.3662a3.0308 3.0308 0 0 0 4.1216 1.0049l38.459-23.3643a3.0254 3.0254 0 0 0 1.0058-4.122z" fill="#66cacf" fill-opacity="1" data-original-color="#ffcf4dff" stroke="none" stroke-opacity="1"/><path d="m49.9131 16.5459-2.0772-3.4189a1.0009 1.0009 0 0 0 -1.3735-.335l-35.04 21.288c-1.1768.7137.2576 2.35.7031 3.0835s1.2348 2.7608 2.4121 2.0444l35.04-21.2879a1.0146 1.0146 0 0 0 .3355-1.3741z" fill="#46464e" fill-opacity="1" data-original-color="#46464eff" stroke="none" stroke-opacity="1"/><path d="m57.6313 27.4639-3.6152-5.9473a1.0021 1.0021 0 0 0 -1.373-.3359l-36.9195 22.3828a1.0013 1.0013 0 0 0 -.3359 1.375l3.6157 5.9482a1.0009 1.0009 0 0 0 1.373.3359l36.919-22.3837a1.0163 1.0163 0 0 0 .3359-1.375z" fill="#eeeeee" fill-opacity="1" data-original-color="#eeeeeeff" stroke="none" stroke-opacity="1"/><rect fill="#ebb1b1" height="31" rx="3" width="51" x="2" y="28" fill-opacity="1" data-original-color="#ff3c38ff" stroke="none" stroke-opacity="1"/><g fill="#eee"><path d="m13 35h-6a1.0361 1.0361 0 0 0 -1 1v6a1.0264 1.0264 0 0 0 1 1h6a1 1 0 0 0 1-1v-6a1 1 0 0 0 -1-1zm-1 3h-1.5617a4.0537 4.0537 0 0 0 -.5964-1h2.1581zm-4-.0565a1.8556 1.8556 0 0 1 .6665 1.1678 1.5833 1.5833 0 0 1 -.6665 1.065zm1.9628 3.0565a3.3464 3.3464 0 0 0 .5484-1h1.4888v1z" fill="#eeeeee" fill-opacity="1" data-original-color="#eeeeeeff" stroke="none" stroke-opacity="1"/><circle cx="11" cy="48" r="1" fill="#eeeeee" fill-opacity="1" data-original-color="#eeeeeeff" stroke="none" stroke-opacity="1"/><circle cx="14" cy="48" r="1" fill="#eeeeee" fill-opacity="1" data-original-color="#eeeeeeff" stroke="none" stroke-opacity="1"/><circle cx="17" cy="48" r="1" fill="#eeeeee" fill-opacity="1" data-original-color="#eeeeeeff" stroke="none" stroke-opacity="1"/><circle cx="24" cy="48" r="1" fill="#eeeeee" fill-opacity="1" data-original-color="#eeeeeeff" stroke="none" stroke-opacity="1"/><circle cx="27" cy="48" r="1" fill="#eeeeee" fill-opacity="1" data-original-color="#eeeeeeff" stroke="none" stroke-opacity="1"/><circle cx="30" cy="48" r="1" fill="#eeeeee" fill-opacity="1" data-original-color="#eeeeeeff" stroke="none" stroke-opacity="1"/><circle cx="33" cy="48" r="1" fill="#eeeeee" fill-opacity="1" data-original-color="#eeeeeeff" stroke="none" stroke-opacity="1"/><circle cx="36" cy="48" r="1" fill="#eeeeee" fill-opacity="1" data-original-color="#eeeeeeff" stroke="none" stroke-opacity="1"/><circle cx="39" cy="48" r="1" fill="#eeeeee" fill-opacity="1" data-original-color="#eeeeeeff" stroke="none" stroke-opacity="1"/><circle cx="42" cy="48" r="1" fill="#eeeeee" fill-opacity="1" data-original-color="#eeeeeeff" stroke="none" stroke-opacity="1"/><circle cx="45" cy="48" r="1" fill="#eeeeee" fill-opacity="1" data-original-color="#eeeeeeff" stroke="none" stroke-opacity="1"/><path d="m46 53h-37a1.0006 1.0006 0 0 1 0-2h37a1.0006 1.0006 0 0 1 0 2z" fill="#eeeeee" fill-opacity="1" data-original-color="#eeeeeeff" stroke="none" stroke-opacity="1"/><path d="m46 35h-13a1.0006 1.0006 0 0 1 0-2h13a1.0006 1.0006 0 0 1 0 2z" fill="#eeeeee" fill-opacity="1" data-original-color="#eeeeeeff" stroke="none" stroke-opacity="1"/><path d="m46 38h-18a1.0006 1.0006 0 0 1 0-2h18a1.0006 1.0006 0 0 1 0 2z" fill="#eeeeee" fill-opacity="1" data-original-color="#eeeeeeff" stroke="none" stroke-opacity="1"/></g></g></g></svg>