<svg id="Layer_1" enable-background="new 0 0 512 512" viewBox="0 0 512 512" xmlns="http://www.w3.org/2000/svg" width="300" height="300" version="1.1" xmlns:xlink="http://www.w3.org/1999/xlink" xmlns:svgjs="http://svgjs.dev/svgjs"><g width="100%" height="100%" transform="matrix(1,0,0,1,0,0)"><g clip-rule="evenodd" fill-rule="evenodd"><g><path d="m369.6 17.22c-63.43-12.18-92.11 86.04-113.6 132.63 51.24-2.69 153.1 7.07 165.28-56.36 6.76-35.18-16.5-69.51-51.68-76.27z" fill="#ebb1b1" fill-opacity="1" data-original-color="#f79595ff" stroke="none" stroke-opacity="1"/><path d="m142.4 17.22c63.42-12.19 92.11 86.04 113.6 132.63-51.24-2.69-153.1 7.07-165.28-56.36-6.76-35.18 16.5-69.51 51.68-76.27z" fill="#ebb1b1" fill-opacity="1" data-original-color="#f79595ff" stroke="none" stroke-opacity="1"/><path d="m98.13 189.62h315.74c11.02 0 20 8.99 20 20v266.33c0 11.01-8.99 20-20 20h-315.74c-11.01 0-20-8.98-20-20v-266.33c0-11.02 8.98-20 20-20z" fill="#66cacf" fill-opacity="1" data-original-color="#7acaa6ff" stroke="none" stroke-opacity="1"/><path d="m72.43 149.62h367.13c11.02 0 20 8.98 20 20v37.95c0 11.02-8.98 20-20 20h-367.13c-11.02 0-20-8.98-20-20v-37.95c0-11.02 8.99-20 20-20z" fill="#89d0d4" fill-opacity="1" data-original-color="#9fd3baff" stroke="none" stroke-opacity="1"/><path d="m227.06 161.88h57.89v-43.18c0-15.92-13.02-28.94-28.94-28.94s-28.94 13.02-28.94 28.94v43.18z" fill="#ebb1b1" fill-opacity="1" data-original-color="#f37171ff" stroke="none" stroke-opacity="1"/><path d="m210.86 149.62h90.27v346.33h-90.27z" fill="#ebb1b1" fill-opacity="1" data-original-color="#f47c7cff" stroke="none" stroke-opacity="1"/></g><path d="m453.57 207.62c0 7.72-6.28 14-14 14h-132.43v-65.95h132.43c7.72 0 14 6.28 14 14zm-39.7 282.39h-106.73v-256.39h120.73v242.39c0 7.72-6.28 14-14 14zm-329.74-14v-242.39h120.73v256.39h-106.73c-7.72 0-14-6.28-14-14zm-25.7-268.39v-37.95c0-7.72 6.28-14 14-14h132.43v65.95h-132.43c-7.72 0-14-6.28-14-14zm38.18-115.44c-6.15-32.03 14.9-63.09 46.93-69.24 18.18-3.49 34.5 2.88 49.89 19.47 14.72 15.86 26.32 38.94 34.12 56.11-3.22 4.51-5.4 9.82-6.17 15.56-38.43-34.08-64.55-44.35-77.69-30.48-2.28 2.41-2.18 6.2.23 8.48 2.4 2.28 6.2 2.18 8.48-.23 5.81-6.14 21.06 1.86 29.63 7.17 13.99 8.67 28.69 21.37 39.03 30.97v12.97c-26.31-.41-53.43-1.62-76.36-7.94-28.32-7.79-44.05-21.8-48.09-42.84zm182.33 26.58v24.91h-45.88v-24.91c0-12.65 10.29-22.94 22.94-22.94s22.94 10.3 22.94 22.94zm39.63-76.36c15.4-16.59 31.72-22.96 49.89-19.47 32.03 6.15 53.08 37.22 46.93 69.25-9.04 47.04-76.4 49.94-124.45 50.7v-12.88c10.33-9.6 25.05-22.3 39.04-30.98 8.57-5.31 23.81-13.3 29.62-7.16 2.28 2.41 6.07 2.51 8.48.23s2.51-6.08.23-8.48c-13.14-13.87-39.26-3.6-77.69 30.48-.77-5.75-2.95-11.05-6.17-15.56 7.8-17.19 19.4-40.27 34.12-56.13zm-23.43 447.61h-78.28v-334.34h78.28zm144.43-346.34h-59.43c23.54-8.34 42.01-23.05 47.03-49.23 7.41-38.53-17.92-75.89-56.44-83.29-46.69-8.97-75.47 35.63-95.41 78.51-5.54-3.69-12.18-5.84-19.32-5.84s-13.78 2.16-19.32 5.84c-19.94-42.89-48.73-87.48-95.41-78.51-38.52 7.4-63.85 44.77-56.44 83.29 5.01 26.08 23.78 40.83 47.38 49.23h-59.78c-14.33 0-26 11.67-26 26v37.95c0 14.23 11.5 25.83 25.7 25.99v242.39c0 14.33 11.66 26 26 26h315.74c14.34 0 26-11.66 26-26v-242.39c14.2-.16 25.7-11.76 25.7-25.99v-37.95c0-14.33-11.67-26-26-26z" fill="#242222" fill-opacity="1" data-original-color="#242222ff" stroke="none" stroke-opacity="1"/></g></g></svg>